<svg xmlns="http://www.w3.org/2000/svg" 
     width="64" height="64" viewBox="0 0 64 64">
  <!-- Outer snack bag with curved sides and zigzag seals -->
  <path d="M12 8 
           L16 12 L20 8 L24 12 L28 8 L32 12 L36 8 L40 12 L44 8 L48 12 L52 8 
           L52 16
           Q48 20 48 22
           L48 42
           Q48 44 52 48
           L52 56 L48 52 L44 56 L40 52 L36 56 L32 52 L28 56 L24 52 L20 56 L16 52 L12 56
           L12 48
           Q16 44 16 40
           L16 22
           Q16 20 12 16 Z"
        fill="none" stroke="#6750A4" stroke-width="4" stroke-linejoin="round"/>

  <!-- Inner small snack bag -->
  <rect x="23" y="25" width="18" height="14" rx="2" ry="2"
        fill="none" stroke="#6750A4" stroke-width="3"/>
  <!-- Oval chip logo on small bag -->
  <ellipse cx="32" cy="32" rx="3" ry="2" 
           fill="none" stroke="#6750A4" stroke-width="3"/>
</svg>
